<svg width="24px" height="24px" viewBox="0 0 24 25" fill="none" xmlns="http://www.w3.org/2000/svg">
<path d="M12.0024 9.58143V4.78233C12.0024 3.47028 12.0024 2.81425 11.6515 2.70463C11.3006 2.595 10.9271 3.13436 10.1802 4.21307L4.08771 13.0122C3.61072 13.7011 3.37222 14.0455 3.51261 14.3135C3.653 14.5814 4.07196 14.5814 4.90987 14.5814H12.0024V20.3798C12.0024 21.6921 12.0024 22.3483 12.3533 22.4579C12.7042 22.5675 13.0777 22.028 13.8246 20.949L19.915 12.1506C20.3918 11.4617 20.6302 11.1173 20.4898 10.8494C20.3494 10.5814 19.9305 10.5814 19.0927 10.5814H13.0024C12.531 10.5814 12.2953 10.5814 12.1488 10.435C12.0024 10.2885 12.0024 10.0528 12.0024 9.58143Z" stroke="black" stroke-width="1.5" stroke-linejoin="round" class="my-path"/>
</svg>