<svg width="24" height="24" viewBox="0 0 24 24" fill="none" xmlns="http://www.w3.org/2000/svg">
<path d="M3 12C3 11.0572 3 10.5858 3.29289 10.2929C3.58579 10 4.05719 10 5 10C5.94281 10 6.41421 10 6.70711 10.2929C7 10.5858 7 11.0572 7 12V19C7 19.9428 7 20.4142 6.70711 20.7071C6.41421 21 5.94281 21 5 21C4.05719 21 3.58579 21 3.29289 20.7071C3 20.4142 3 19.9428 3 19V12Z" stroke="black" stroke-width="1.6" class="my-path"/>
<path d="M19.9619 15.8933L20.654 11.2976C20.8148 10.2293 20.8953 9.69514 20.5961 9.34747C20.2968 8.99981 19.7566 8.99981 18.6763 8.99981H15.5695C15.0382 8.99981 14.7725 8.99981 14.5674 8.90142C14.3623 8.80299 14.1968 8.63753 14.0984 8.43236C14 8.22728 14 7.96161 14 7.43026C14 5.80513 14 4.99255 13.7027 4.63226C13.4083 4.27558 12.9467 4.10212 12.4903 4.17672C12.0293 4.25208 11.4942 4.8636 10.424 6.08664L7.49485 9.43427C7.25015 9.71393 7.12779 9.85376 7.0639 10.0238C7 10.1939 7 10.3797 7 10.7513V14.9998C7 17.8282 7 19.2425 7.87868 20.1211C8.75736 20.9998 10.1716 20.9998 13 20.9998H14.0288C16.4923 20.9998 17.7241 20.9998 18.5679 20.2736C19.4116 19.5474 19.595 18.3294 19.9619 15.8933Z" stroke="black" stroke-width="1.6" stroke-linecap="round" class="my-path"/>
</svg>