<svg width="18px" height="18px" viewBox="0 0 24 24" fill="none" xmlns="http://www.w3.org/2000/svg">
<path fill-rule="evenodd" clip-rule="evenodd" d="M14.373 5.43427C14.6854 5.12185 15.1919 5.12185 15.5044 5.43427L21.5657 11.4956C21.7157 11.6456 21.8 11.8491 21.8 12.0613C21.8 12.2735 21.7157 12.477 21.5657 12.627L15.5044 18.6883C15.1919 19.0007 14.6854 19.0007 14.373 18.6883C14.0606 18.3759 14.0606 17.8694 14.373 17.557L19.8686 12.0613L14.373 6.56564C14.0606 6.25322 14.0606 5.74669 14.373 5.43427Z" fill="black" class="my-path"/>
<path fill-rule="evenodd" clip-rule="evenodd" d="M2.19971 12.0615C2.19971 11.6196 2.55788 11.2615 2.99971 11.2615L20.9997 11.2615C21.4415 11.2615 21.7997 11.6196 21.7997 12.0615C21.7997 12.5033 21.4415 12.8615 20.9997 12.8615L2.99971 12.8615C2.55788 12.8615 2.19971 12.5033 2.19971 12.0615Z" fill="black" class="my-path"/>
</svg>